<?xml version="1.0" encoding="UTF-8" standalone="no"?>
<svg xmlns="http://www.w3.org/2000/svg" viewBox="0 0 768 768" width="768" height="768">
  <defs>
    <!-- Neon glow filter -->
    <filter id="glow" x="-50%" y="-50%" width="200%" height="200%">
      <feGaussianBlur stdDeviation="6" result="coloredBlur"/>
      <feMerge>
        <feMergeNode in="coloredBlur"/>
        <feMergeNode in="SourceGraphic"/>
      </feMerge>
    </filter>
    <!-- Stroke styles -->
    <style>
      .neon { stroke:#5deaff; stroke-width:18; fill:none; stroke-linecap:round; stroke-linejoin:round; filter:url(#glow); }
      .core { stroke:#c7fbff; stroke-width:8; fill:none; stroke-linecap:round; stroke-linejoin:round; }
      .accent { stroke:#e9a7ff; stroke-width:12; fill:none; stroke-linecap:round; stroke-linejoin:round; filter:url(#glow); }
      .accent-core { stroke:#ffd8ff; stroke-width:6; fill:none; stroke-linecap:round; stroke-linejoin:round; }
    </style>
  </defs>

  <!-- Group scaled and centered -->
  <g transform="translate(120,60) scale(0.85)">
    <!-- Outer neon strokes -->
    <g class="neon">
      <path d="M205 585c35 0 75 35 124 35 38 0 57-16 72-39"/>
      <path d="M142 250c0-24 23-44 54-61m0 0c8-4 16-8 24-12 52-26 124-28 175 6 48 32 64 86 55 147"/>
      <path d="M191 334c-9 21-14 44-14 67 0 69 54 113 125 113 64 0 107-22 133-64"/>
      <path d="M188 456c-18 29-28 66-28 104"/>
      <path d="M272 505c-35 9-72 27-108 48"/>
      <path d="M314 520c28 0 62 7 95 22"/>
      <path d="M420 420c18-8 42-22 59-43"/>
      <path d="M458 338c7-12 11-26 11-41 0-12-3-24-8-35"/>
      <path d="M301 288c-28 12-58 36-72 66"/>
      <path d="M262 252c-8 11-14 24-17 38"/>
      <path d="M216 214c-14-3-28-2-41 3"/>
      <!-- Forearm + hand -->
      <path d="M252 468c-36-9-60-32-66-66"/>
      <path d="M304 460c-14 12-33 17-52 14"/>
      <path d="M330 438c-6 10-15 17-26 22"/>
      <!-- Tablet outline -->
      <path d="M516 420l118 74c9 6 12 18 6 27l-58 92c-6 9-18 12-27 6l-118-74c-9-6-12-18-6-27l58-92c6-9 18-12 27-6z"/>
      <!-- Tablet button and finger marks -->
      <circle cx="614" cy="533" r="18"/>
      <path d="M464 505c18 6 32 16 42 28"/>
      <path d="M444 536c16 6 30 15 40 26"/>
      <path d="M428 565c14 6 24 13 33 22"/>
      <!-- Head & neck outline -->
      <path d="M384 166c54 0 98 44 98 98 0 54-44 98-98 98-54 0-98-44-98-98 0-54 44-98 98-98z"/>
      <path d="M363 358c-2 22-2 40-2 56"/>
      <!-- Shoulder & upper arm -->
      <path d="M248 292c-20-8-34-22-40-41"/>
      <path d="M240 312c-28 52-18 101 26 130"/>
      <!-- Back curve -->
      <path d="M208 300c-38 36-58 84-58 146"/>
    </g>

    <!-- Inner bright cores (draw same paths with thinner stroke) -->
    <g class="core">
      <path d="M205 585c35 0 75 35 124 35 38 0 57-16 72-39"/>
      <path d="M142 250c0-24 23-44 54-61m0 0c8-4 16-8 24-12 52-26 124-28 175 6 48 32 64 86 55 147"/>
      <path d="M191 334c-9 21-14 44-14 67 0 69 54 113 125 113 64 0 107-22 133-64"/>
      <path d="M188 456c-18 29-28 66-28 104"/>
      <path d="M272 505c-35 9-72 27-108 48"/>
      <path d="M314 520c28 0 62 7 95 22"/>
      <path d="M420 420c18-8 42-22 59-43"/>
      <path d="M458 338c7-12 11-26 11-41 0-12-3-24-8-35"/>
      <path d="M301 288c-28 12-58 36-72 66"/>
      <path d="M262 252c-8 11-14 24-17 38"/>
      <path d="M216 214c-14-3-28-2-41 3"/>
      <path d="M252 468c-36-9-60-32-66-66"/>
      <path d="M304 460c-14 12-33 17-52 14"/>
      <path d="M330 438c-6 10-15 17-26 22"/>
      <path d="M516 420l118 74c9 6 12 18 6 27l-58 92c-6 9-18 12-27 6l-118-74c-9-6-12-18-6-27l58-92c6-9 18-12 27-6z"/>
      <circle cx="614" cy="533" r="18"/>
      <path d="M464 505c18 6 32 16 42 28"/>
      <path d="M444 536c16 6 30 15 40 26"/>
      <path d="M428 565c14 6 24 13 33 22"/>
      <path d="M384 166c54 0 98 44 98 98 0 54-44 98-98 98-54 0-98-44-98-98 0-54 44-98 98-98z"/>
      <path d="M363 358c-2 22-2 40-2 56"/>
      <path d="M248 292c-20-8-34-22-40-41"/>
      <path d="M240 312c-28 52-18 101 26 130"/>
      <path d="M208 300c-38 36-58 84-58 146"/>
    </g>

    <!-- Ear accent (pink) -->
    <g>
      <circle class="accent" cx="316" cy="234" r="58"/>
      <circle class="accent-core" cx="316" cy="234" r="58"/>
      <circle class="accent" cx="316" cy="234" r="28"/>
      <circle class="accent-core" cx="316" cy="234" r="28"/>
    </g>
  </g>
</svg>
